<svg width="200" height="40" viewBox="0 0 200 40" fill="none" xmlns="http://www.w3.org/2000/svg">
<path d="M8.4 26.5155L5.48 21.2155H4.66V26.5155H1.24V12.4755H6.98C8.08667 12.4755 9.02667 12.6688 9.8 13.0555C10.5867 13.4422 11.1733 13.9755 11.56 14.6555C11.9467 15.3222 12.14 16.0688 12.14 16.8955C12.14 17.8288 11.8733 18.6622 11.34 19.3955C10.82 20.1288 10.0467 20.6488 9.02 20.9555L12.26 26.5155H8.4ZM4.66 18.7955H6.78C7.40667 18.7955 7.87333 18.6422 8.18 18.3355C8.5 18.0288 8.66 17.5955 8.66 17.0355C8.66 16.5022 8.5 16.0822 8.18 15.7755C7.87333 15.4688 7.40667 15.3155 6.78 15.3155H4.66V18.7955ZM19.3669 26.6755C18.2735 26.6755 17.2869 26.4422 16.4069 25.9755C15.5402 25.5088 14.8535 24.8422 14.3469 23.9755C13.8535 23.1088 13.6069 22.0955 13.6069 20.9355C13.6069 19.7888 13.8602 18.7822 14.3669 17.9155C14.8735 17.0355 15.5669 16.3622 16.4469 15.8955C17.3269 15.4288 18.3135 15.1955 19.4069 15.1955C20.5002 15.1955 21.4869 15.4288 22.3669 15.8955C23.2469 16.3622 23.9402 17.0355 24.4469 17.9155C24.9535 18.7822 25.2069 19.7888 25.2069 20.9355C25.2069 22.0822 24.9469 23.0955 24.4269 23.9755C23.9202 24.8422 23.2202 25.5088 22.3269 25.9755C21.4469 26.4422 20.4602 26.6755 19.3669 26.6755ZM19.3669 23.7155C20.0202 23.7155 20.5735 23.4755 21.0269 22.9955C21.4935 22.5155 21.7269 21.8288 21.7269 20.9355C21.7269 20.0422 21.5002 19.3555 21.0469 18.8755C20.6069 18.3955 20.0602 18.1555 19.4069 18.1555C18.7402 18.1555 18.1869 18.3955 17.7469 18.8755C17.3069 19.3422 17.0869 20.0288 17.0869 20.9355C17.0869 21.8288 17.3002 22.5155 17.7269 22.9955C18.1669 23.4755 18.7135 23.7155 19.3669 23.7155ZM41.2613 15.2355C42.6479 15.2355 43.7479 15.6555 44.5613 16.4955C45.3879 17.3355 45.8013 18.5022 45.8013 19.9955V26.5155H42.4013V20.4555C42.4013 19.7355 42.2079 19.1822 41.8213 18.7955C41.4479 18.3955 40.9279 18.1955 40.2613 18.1955C39.5946 18.1955 39.0679 18.3955 38.6813 18.7955C38.3079 19.1822 38.1213 19.7355 38.1213 20.4555V26.5155H34.7213V20.4555C34.7213 19.7355 34.5279 19.1822 34.1413 18.7955C33.7679 18.3955 33.2479 18.1955 32.5813 18.1955C31.9146 18.1955 31.3879 18.3955 31.0013 18.7955C30.6279 19.1822 30.4413 19.7355 30.4413 20.4555V26.5155H27.0213V15.3555H30.4413V16.7555C30.7879 16.2888 31.2413 15.9222 31.8013 15.6555C32.3613 15.3755 32.9946 15.2355 33.7013 15.2355C34.5413 15.2355 35.2879 15.4155 35.9413 15.7755C36.6079 16.1355 37.1279 16.6488 37.5013 17.3155C37.8879 16.7022 38.4146 16.2022 39.0813 15.8155C39.7479 15.4288 40.4746 15.2355 41.2613 15.2355ZM47.5131 20.9155C47.5131 19.7688 47.7265 18.7622 48.1531 17.8955C48.5931 17.0288 49.1865 16.3622 49.9331 15.8955C50.6798 15.4288 51.5131 15.1955 52.4331 15.1955C53.2198 15.1955 53.9065 15.3555 54.4931 15.6755C55.0931 15.9955 55.5531 16.4155 55.8731 16.9355V15.3555H59.2931V26.5155H55.8731V24.9355C55.5398 25.4555 55.0731 25.8755 54.4731 26.1955C53.8865 26.5155 53.1998 26.6755 52.4131 26.6755C51.5065 26.6755 50.6798 26.4422 49.9331 25.9755C49.1865 25.4955 48.5931 24.8222 48.1531 23.9555C47.7265 23.0755 47.5131 22.0622 47.5131 20.9155ZM55.8731 20.9355C55.8731 20.0822 55.6331 19.4088 55.1531 18.9155C54.6865 18.4222 54.1131 18.1755 53.4331 18.1755C52.7531 18.1755 52.1731 18.4222 51.6931 18.9155C51.2265 19.3955 50.9931 20.0622 50.9931 20.9155C50.9931 21.7688 51.2265 22.4488 51.6931 22.9555C52.1731 23.4488 52.7531 23.6955 53.4331 23.6955C54.1131 23.6955 54.6865 23.4488 55.1531 22.9555C55.6331 22.4622 55.8731 21.7888 55.8731 20.9355ZM66.0073 15.1955C66.794 15.1955 67.4807 15.3555 68.0673 15.6755C68.6673 15.9955 69.1273 16.4155 69.4473 16.9355V15.3555H72.8673V26.4955C72.8673 27.5222 72.6607 28.4488 72.2473 29.2755C71.8473 30.1155 71.2273 30.7822 70.3873 31.2755C69.5607 31.7688 68.5273 32.0155 67.2873 32.0155C65.634 32.0155 64.294 31.6222 63.2673 30.8355C62.2407 30.0622 61.654 29.0088 61.5073 27.6755H64.8873C64.994 28.1022 65.2473 28.4355 65.6473 28.6755C66.0473 28.9288 66.5407 29.0555 67.1273 29.0555C67.834 29.0555 68.394 28.8488 68.8073 28.4355C69.234 28.0355 69.4473 27.3888 69.4473 26.4955V24.9155C69.114 25.4355 68.654 25.8622 68.0673 26.1955C67.4807 26.5155 66.794 26.6755 66.0073 26.6755C65.0873 26.6755 64.254 26.4422 63.5073 25.9755C62.7607 25.4955 62.1673 24.8222 61.7273 23.9555C61.3007 23.0755 61.0873 22.0622 61.0873 20.9155C61.0873 19.7688 61.3007 18.7622 61.7273 17.8955C62.1673 17.0288 62.7607 16.3622 63.5073 15.8955C64.254 15.4288 65.0873 15.1955 66.0073 15.1955ZM69.4473 20.9355C69.4473 20.0822 69.2073 19.4088 68.7273 18.9155C68.2607 18.4222 67.6873 18.1755 67.0073 18.1755C66.3273 18.1755 65.7473 18.4222 65.2673 18.9155C64.8007 19.3955 64.5673 20.0622 64.5673 20.9155C64.5673 21.7688 64.8007 22.4488 65.2673 22.9555C65.7473 23.4488 66.3273 23.6955 67.0073 23.6955C67.6873 23.6955 68.2607 23.4488 68.7273 22.9555C69.2073 22.4622 69.4473 21.7888 69.4473 20.9355ZM82.1416 15.2355C83.4482 15.2355 84.4882 15.6622 85.2616 16.5155C86.0482 17.3555 86.4416 18.5155 86.4416 19.9955V26.5155H83.0416V20.4555C83.0416 19.7088 82.8482 19.1288 82.4616 18.7155C82.0749 18.3022 81.5549 18.0955 80.9016 18.0955C80.2482 18.0955 79.7282 18.3022 79.3416 18.7155C78.9549 19.1288 78.7616 19.7088 78.7616 20.4555V26.5155H75.3416V15.3555H78.7616V16.8355C79.1082 16.3422 79.5749 15.9555 80.1616 15.6755C80.7482 15.3822 81.4082 15.2355 82.1416 15.2355ZM93.8981 26.6755C92.8048 26.6755 91.8181 26.4422 90.9381 25.9755C90.0715 25.5088 89.3848 24.8422 88.8781 23.9755C88.3848 23.1088 88.1381 22.0955 88.1381 20.9355C88.1381 19.7888 88.3915 18.7822 88.8981 17.9155C89.4048 17.0355 90.0981 16.3622 90.9781 15.8955C91.8581 15.4288 92.8448 15.1955 93.9381 15.1955C95.0315 15.1955 96.0181 15.4288 96.8981 15.8955C97.7781 16.3622 98.4715 17.0355 98.9781 17.9155C99.4848 18.7822 99.7381 19.7888 99.7381 20.9355C99.7381 22.0822 99.4781 23.0955 98.9581 23.9755C98.4515 24.8422 97.7515 25.5088 96.8581 25.9755C95.9781 26.4422 94.9915 26.6755 93.8981 26.6755ZM93.8981 23.7155C94.5515 23.7155 95.1048 23.4755 95.5581 22.9955C96.0248 22.5155 96.2581 21.8288 96.2581 20.9355C96.2581 20.0422 96.0315 19.3555 95.5781 18.8755C95.1381 18.3955 94.5915 18.1555 93.9381 18.1555C93.2715 18.1555 92.7181 18.3955 92.2781 18.8755C91.8381 19.3422 91.6181 20.0288 91.6181 20.9355C91.6181 21.8288 91.8315 22.5155 92.2581 22.9955C92.6981 23.4755 93.2448 23.7155 93.8981 23.7155ZM104.973 11.7155V26.5155H101.553V11.7155H104.973ZM109.171 14.1955C108.571 14.1955 108.078 14.0222 107.691 13.6755C107.318 13.3155 107.131 12.8755 107.131 12.3555C107.131 11.8222 107.318 11.3822 107.691 11.0355C108.078 10.6755 108.571 10.4955 109.171 10.4955C109.758 10.4955 110.238 10.6755 110.611 11.0355C110.998 11.3822 111.191 11.8222 111.191 12.3555C111.191 12.8755 110.998 13.3155 110.611 13.6755C110.238 14.0222 109.758 14.1955 109.171 14.1955ZM110.871 15.3555V26.5155H107.451V15.3555H110.871ZM118.429 26.6555C117.403 26.6555 116.483 26.4888 115.669 26.1555C114.856 25.8222 114.203 25.3288 113.709 24.6755C113.229 24.0222 112.976 23.2355 112.949 22.3155H116.589C116.643 22.8355 116.823 23.2355 117.129 23.5155C117.436 23.7822 117.836 23.9155 118.329 23.9155C118.836 23.9155 119.236 23.8022 119.529 23.5755C119.823 23.3355 119.969 23.0088 119.969 22.5955C119.969 22.2488 119.849 21.9622 119.609 21.7355C119.383 21.5088 119.096 21.3222 118.749 21.1755C118.416 21.0288 117.936 20.8622 117.309 20.6755C116.403 20.3955 115.663 20.1155 115.089 19.8355C114.516 19.5555 114.023 19.1422 113.609 18.5955C113.196 18.0488 112.989 17.3355 112.989 16.4555C112.989 15.1488 113.463 14.1288 114.409 13.3955C115.356 12.6488 116.589 12.2755 118.109 12.2755C119.656 12.2755 120.903 12.6488 121.849 13.3955C122.796 14.1288 123.303 15.1555 123.369 16.4755H119.669C119.643 16.0222 119.476 15.6688 119.169 15.4155C118.863 15.1488 118.469 15.0155 117.989 15.0155C117.576 15.0155 117.243 15.1288 116.989 15.3555C116.736 15.5688 116.609 15.8822 116.609 16.2955C116.609 16.7488 116.823 17.1022 117.249 17.3555C117.676 17.6088 118.343 17.8822 119.249 18.1755C120.156 18.4822 120.889 18.7755 121.449 19.0555C122.023 19.3355 122.516 19.7422 122.929 20.2755C123.343 20.8088 123.549 21.4955 123.549 22.3355C123.549 23.1355 123.343 23.8622 122.929 24.5155C122.529 25.1688 121.943 25.6888 121.169 26.0755C120.396 26.4622 119.483 26.6555 118.429 26.6555ZM131.874 23.6155V26.5155H130.134C128.894 26.5155 127.927 26.2155 127.234 25.6155C126.541 25.0022 126.194 24.0088 126.194 22.6355V18.1955H124.834V15.3555H126.194V12.6355H129.614V15.3555H131.854V18.1955H129.614V22.6755C129.614 23.0088 129.694 23.2488 129.854 23.3955C130.014 23.5422 130.281 23.6155 130.654 23.6155H131.874ZM144.299 20.7555C144.299 21.0755 144.279 21.4088 144.239 21.7555H136.499C136.552 22.4488 136.772 22.9822 137.159 23.3555C137.559 23.7155 138.046 23.8955 138.619 23.8955C139.472 23.8955 140.066 23.5355 140.399 22.8155H144.039C143.852 23.5488 143.512 24.2088 143.019 24.7955C142.539 25.3822 141.932 25.8422 141.199 26.1755C140.466 26.5088 139.646 26.6755 138.739 26.6755C137.646 26.6755 136.672 26.4422 135.819 25.9755C134.966 25.5088 134.299 24.8422 133.819 23.9755C133.339 23.1088 133.099 22.0955 133.099 20.9355C133.099 19.7755 133.332 18.7622 133.799 17.8955C134.279 17.0288 134.946 16.3622 135.799 15.8955C136.652 15.4288 137.632 15.1955 138.739 15.1955C139.819 15.1955 140.779 15.4222 141.619 15.8755C142.459 16.3288 143.112 16.9755 143.579 17.8155C144.059 18.6555 144.299 19.6355 144.299 20.7555ZM140.799 19.8555C140.799 19.2688 140.599 18.8022 140.199 18.4555C139.799 18.1088 139.299 17.9355 138.699 17.9355C138.126 17.9355 137.639 18.1022 137.239 18.4355C136.852 18.7688 136.612 19.2422 136.519 19.8555H140.799Z" fill="black"/>
<path d="M180 0C177.374 0 174.773 0.517315 172.346 1.52241C169.92 2.5275 167.715 4.00069 165.858 5.85786C162.107 9.60859 160 14.6957 160 20C160 28.84 165.74 36.34 173.68 39C174.68 39.16 175 38.54 175 38V34.62C169.46 35.82 168.28 31.94 168.28 31.94C167.36 29.62 166.06 29 166.06 29C164.24 27.76 166.2 27.8 166.2 27.8C168.2 27.94 169.26 29.86 169.26 29.86C171 32.9 173.94 32 175.08 31.52C175.26 30.22 175.78 29.34 176.34 28.84C171.9 28.34 167.24 26.62 167.24 19C167.24 16.78 168 15 169.3 13.58C169.1 13.08 168.4 11 169.5 8.3C169.5 8.3 171.18 7.76 175 10.34C176.58 9.9 178.3 9.68 180 9.68C181.7 9.68 183.42 9.9 185 10.34C188.82 7.76 190.5 8.3 190.5 8.3C191.6 11 190.9 13.08 190.7 13.58C192 15 192.76 16.78 192.76 19C192.76 26.64 188.08 28.32 183.62 28.82C184.34 29.44 185 30.66 185 32.52V38C185 38.54 185.32 39.18 186.34 39C194.28 36.32 200 28.84 200 20C200 17.3736 199.483 14.7728 198.478 12.3463C197.472 9.91982 195.999 7.71504 194.142 5.85786C192.285 4.00069 190.08 2.5275 187.654 1.52241C185.227 0.517315 182.626 0 180 0Z" fill="black"/>
</svg>
